<svg xmlns="http://www.w3.org/2000/svg" width="48" height="48" viewBox="0 0 48 48" fill="none"><path d="M24 48C37.2548 48 48 37.2548 48 24C48 10.7452 37.2548 0 24 0C10.7452 0 0 10.7452 0 24C0 37.2548 10.7452 48 24 48Z" fill="#E4032F"></path><path d="M0 23.73L2.295 23.655C7.125 23.415 10.59 22.98 14.01 19.365C19.5 13.5 33.45 15.135 38.355 21.6C40.38 24.255 40.26 26.34 37.98 28.965C31.98 35.865 18.84 36.225 12.705 29.565C11.7844 28.4792 10.6339 27.6117 9.33673 27.0254C8.03957 26.4391 6.62826 26.1486 5.205 26.175L0.06 26.265C0.06 26.265 0 24.765 0 23.73Z" fill="white"></path></svg>